<svg xmlns="http://www.w3.org/2000/svg" xmlns:xlink="http://www.w3.org/1999/xlink" width="2500" zoomAndPan="magnify" viewBox="0 0 1874.88 1874.999927" height="2500" preserveAspectRatio="xMidYMid meet" version="1.0"><defs><clipPath id="48e0d30734"><path d="M 179 29.148438 L 1694 29.148438 L 1694 1845.535156 L 179 1845.535156 Z M 179 29.148438 " clip-rule="nonzero"/></clipPath></defs><g clip-path="url(#48e0d30734)"><path fill="#626262" d="M 936.300781 29.148438 C 518.4375 29.148438 179.347656 367.875 179.347656 786.101562 C 179.347656 995.019531 264.050781 1184.230469 401.121094 1321.277344 L 936.300781 1845.851562 L 1471.636719 1321.164062 C 1608.683594 1184.253906 1693.410156 995.042969 1693.25 785.964844 C 1693.25 368.238281 1354.390625 29.148438 936.300781 29.148438 Z M 1364.675781 1213.957031 L 936.300781 1633.839844 L 507.128906 1213.070312 C 393.71875 1099.84375 330.726562 947.785156 330.726562 786.125 C 330.726562 452.214844 602.390625 180.550781 936.300781 180.550781 C 1098.03125 180.550781 1250.15625 243.609375 1364.519531 357.972656 C 1478.878906 472.402344 1541.875 624.390625 1541.875 785.988281 C 1542.011719 947.785156 1479.015625 1099.707031 1364.675781 1213.957031 Z M 1364.675781 1213.957031 " fill-opacity="1" fill-rule="nonzero"/></g><path fill="#626262" d="M 936.300781 407.636719 L 557.8125 786.101562 L 671.355469 786.101562 L 671.355469 1088.875 L 860.613281 1088.875 L 860.613281 861.8125 L 1011.988281 861.8125 L 1011.988281 1088.875 L 1201.242188 1088.875 L 1201.242188 786.101562 L 1314.785156 786.101562 Z M 936.300781 407.636719 " fill-opacity="1" fill-rule="nonzero"/></svg>