<svg xmlns="http://www.w3.org/2000/svg" xmlns:xlink="http://www.w3.org/1999/xlink" width="2500" zoomAndPan="magnify" viewBox="0 0 1874.88 1499.999933" height="2000" preserveAspectRatio="xMidYMid meet" version="1.0"><defs><g/><clipPath id="0b82c83cbf"><path d="M 249.335938 303.023438 L 1856.625 303.023438 L 1856.625 871.027344 L 249.335938 871.027344 Z M 249.335938 303.023438 " clip-rule="nonzero"/></clipPath></defs><g fill="#38ffdb" fill-opacity="1"><g transform="translate(18.013969, 1192.866467)"><g><path d="M 231.96875 0 L 231.96875 -31.609375 C 206.25 -10.535156 177.140625 0 144.640625 0 C 106.785156 0.351562 74.285156 -12.859375 47.140625 -39.640625 C 19.992188 -66.429688 6.242188 -98.929688 5.890625 -137.140625 C 5.535156 -175.003906 18.75 -207.503906 45.53125 -234.640625 C 72.320312 -261.785156 104.820312 -275.535156 143.03125 -275.890625 C 176.25 -275.890625 205.71875 -265.351562 231.4375 -244.28125 L 231.4375 -373.9375 L 306.4375 -373.9375 L 306.96875 0 Z M 192.328125 -90 C 205.535156 -103.21875 212.140625 -119.289062 212.140625 -138.21875 C 211.429688 -157.5 204.644531 -173.570312 191.78125 -186.4375 C 178.21875 -199.289062 162.148438 -205.71875 143.578125 -205.71875 C 124.640625 -205.71875 108.566406 -199.109375 95.359375 -185.890625 C 82.140625 -171.253906 75.710938 -155.1875 76.078125 -137.6875 C 76.078125 -118.75 82.679688 -102.675781 95.890625 -89.46875 C 109.109375 -76.25 125.179688 -69.640625 144.109375 -69.640625 C 163.390625 -70.359375 179.460938 -77.144531 192.328125 -90 Z M 192.328125 -90 "/></g></g></g><g fill="#38ffdb" fill-opacity="1"><g transform="translate(341.050093, 1192.866467)"><g><path d="M 400.1875 -279.640625 L 250.1875 0 L 249.640625 -0.53125 L 201.4375 -90.53125 L 152.6875 0 L 152.6875 -0.53125 L 2.671875 -279.640625 L 79.828125 -279.640625 L 152.6875 -139.828125 L 163.390625 -160.71875 L 99.640625 -279.640625 L 176.78125 -279.640625 L 250.1875 -139.828125 L 323.03125 -279.640625 Z M 400.1875 -279.640625 "/></g></g></g><g fill="#38ffdb" fill-opacity="1"><g transform="translate(743.907667, 1192.866467)"><g><path d="M 281.78125 -125.890625 C 282.144531 -118.390625 282.144531 -113.925781 281.78125 -112.5 L 80.359375 -113.03125 C 83.210938 -104.820312 88.390625 -96.96875 95.890625 -89.46875 C 109.816406 -76.25 125.890625 -69.640625 144.109375 -69.640625 C 163.390625 -70.359375 179.460938 -77.144531 192.328125 -90 L 194.46875 -92.140625 L 264.109375 -70.171875 C 248.753906 -46.242188 232.679688 -29.101562 215.890625 -18.75 C 196.960938 -6.601562 173.210938 -0.351562 144.640625 0 C 106.785156 0.351562 74.285156 -12.859375 47.140625 -39.640625 C 19.992188 -66.429688 6.242188 -98.929688 5.890625 -137.140625 C 5.535156 -175.003906 18.75 -207.503906 45.53125 -234.640625 C 72.320312 -261.785156 104.820312 -275.535156 143.03125 -275.890625 C 180.894531 -276.253906 213.394531 -263.039062 240.53125 -236.25 C 267.675781 -209.46875 281.425781 -176.96875 281.78125 -138.75 Z M 143.578125 -205.71875 C 124.640625 -205.71875 108.566406 -199.109375 95.359375 -185.890625 C 88.566406 -178.390625 83.742188 -170.890625 80.890625 -163.390625 L 206.78125 -163.390625 C 203.925781 -170.890625 198.925781 -178.570312 191.78125 -186.4375 C 178.21875 -199.289062 162.148438 -205.71875 143.578125 -205.71875 Z M 143.578125 -205.71875 "/></g></g></g><g fill="#38ffdb" fill-opacity="1"><g transform="translate(1031.586569, 1192.866467)"><g><path d="M 91.078125 -372.328125 L 91.078125 0 L 16.078125 0 L 16.078125 -372.328125 Z M 91.078125 -372.328125 "/></g></g></g><g fill="#38ffdb" fill-opacity="1"><g transform="translate(1138.729433, 1192.866467)"><g><path d="M 91.078125 -372.328125 L 91.078125 0 L 16.078125 0 L 16.078125 -372.328125 Z M 91.078125 -372.328125 "/></g></g></g><g fill="#38ffdb" fill-opacity="1"><g transform="translate(1245.872419, 1192.866467)"><g><path d="M 90.53125 -373.390625 L 90.53125 -310.1875 L 16.078125 -310.1875 L 16.078125 -373.390625 Z M 91.078125 -275.359375 L 91.078125 0 L 16.078125 0 L 16.078125 -275.359375 Z M 91.078125 -275.359375 "/></g></g></g><g fill="#38ffdb" fill-opacity="1"><g transform="translate(1353.015406, 1192.866467)"><g><path d="M 168.75 -298.9375 C 160.539062 -298.9375 153.578125 -296.078125 147.859375 -290.359375 C 142.140625 -284.285156 139.28125 -277.144531 139.28125 -268.9375 L 139.28125 -239.46875 L 194.46875 -239.46875 L 194.46875 -164.46875 L 139.28125 -164.46875 L 139.28125 0 L 64.28125 0 L 64.28125 -165 L 16.078125 -165 L 16.078125 -239.46875 L 64.28125 -239.46875 L 64.28125 -298.9375 C 64.28125 -319.644531 71.601562 -337.144531 86.25 -351.4375 C 100.894531 -366.070312 118.570312 -373.390625 139.28125 -373.390625 L 194.46875 -373.390625 L 194.46875 -298.9375 Z M 168.75 -298.9375 "/></g></g></g><g fill="#38ffdb" fill-opacity="1"><g transform="translate(1563.551455, 1192.866467)"><g><path d="M 275.890625 -276.4375 L 167.140625 12.328125 C 155.359375 40.890625 136.609375 63.566406 110.890625 80.359375 C 85.179688 97.140625 57.144531 105.175781 26.78125 104.46875 L 26.78125 29.46875 C 37.851562 29.820312 48.925781 27.5 60 22.5 C 75.71875 15.351562 87.503906 4.101562 95.359375 -11.25 L 110.359375 -52.5 L 16.078125 -276.4375 L 98.578125 -276.4375 L 148.390625 -155.890625 L 192.859375 -276.4375 Z M 275.890625 -276.4375 "/></g></g></g><path fill="#38ffdb" d="M 704.371094 262.382812 L 624.179688 342.570312 C 623.664062 343.089844 622.820312 343.089844 622.300781 342.570312 L 542.777344 263.046875 C 534.976562 255.25 530.257812 245.296875 529.496094 235.019531 C 528.523438 222.074219 533.007812 209.929688 542.113281 200.824219 C 550.335938 192.601562 561.265625 188.070312 572.894531 188.070312 C 584.519531 188.070312 595.449219 192.601562 603.671875 200.824219 L 622.300781 219.449219 C 622.820312 219.96875 623.664062 219.96875 624.179688 219.449219 L 642.15625 201.476562 C 650.109375 193.523438 660.292969 188.792969 670.832031 188.15625 C 671.746094 188.101562 672.683594 188.070312 673.589844 188.070312 C 686.625 188.070312 698.476562 193.597656 706.96875 203.644531 C 712.691406 210.414062 716.242188 219.019531 716.964844 227.859375 C 718.039062 240.933594 713.5625 253.191406 704.371094 262.382812 " fill-opacity="1" fill-rule="nonzero"/><g clip-path="url(#0b82c83cbf)"><path fill="#38ffdb" d="M 282.59375 871.027344 L 249.335938 819.199219 L 525.160156 642.21875 L 525.15625 384.472656 L 727.445312 384.472656 L 727.445312 512.433594 L 1053.117188 303.464844 L 1856.859375 819.199219 L 1823.59375 871.027344 L 1053.117188 376.636719 L 665.863281 625.117188 L 665.863281 446.054688 L 586.742188 446.054688 L 586.746094 675.875 L 282.59375 871.027344 " fill-opacity="1" fill-rule="nonzero"/></g></svg>